<svg width="20" height="18" viewBox="0 0 20 18" fill="none" xmlns="http://www.w3.org/2000/svg">
<path fill-rule="evenodd" clip-rule="evenodd" d="M5.24991 3.63099V2.46099C5.25005 2.04201 5.4005 1.63699 5.67392 1.31953C5.94734 1.00206 6.32558 0.793234 6.73991 0.730986L7.95991 0.547986C9.31234 0.345089 10.6875 0.345089 12.0399 0.547986L13.2599 0.730986C13.6742 0.793234 14.0525 1.00206 14.3259 1.31953C14.5993 1.63699 14.7498 2.04201 14.7499 2.46099V3.63099L16.4639 3.76899C17.1016 3.8205 17.7036 4.08435 18.1737 4.51835C18.6438 4.95234 18.9547 5.53142 19.0569 6.16299C19.5221 9.0356 19.5221 11.9644 19.0569 14.837C18.9547 15.4686 18.6438 16.0476 18.1737 16.4816C17.7036 16.9156 17.1016 17.1795 16.4639 17.231L14.5919 17.381C11.5355 17.6277 8.46427 17.6277 5.40791 17.381L3.53591 17.231C2.89821 17.1795 2.29619 16.9156 1.82612 16.4816C1.35605 16.0476 1.04507 15.4686 0.942907 14.837C0.47769 11.9644 0.47769 9.03561 0.942907 6.16299C1.04528 5.5316 1.35634 4.95275 1.8264 4.51896C2.29645 4.08516 2.89835 3.82145 3.53591 3.76999L5.24991 3.63099ZM8.18291 2.03099C9.3875 1.85031 10.6123 1.85031 11.8169 2.03099L13.0369 2.21399C13.0961 2.22284 13.1501 2.25264 13.1892 2.29797C13.2283 2.34329 13.2498 2.40114 13.2499 2.46099V3.52599C11.085 3.40252 8.91481 3.40252 6.74991 3.52599V2.45999C6.74997 2.40014 6.77149 2.34229 6.81058 2.29697C6.84967 2.25164 6.90372 2.22184 6.96291 2.21299L8.18291 2.03099ZM5.52891 5.11299C8.50491 4.87299 11.4949 4.87299 14.4709 5.11299L16.3429 5.26499C16.6463 5.28926 16.9327 5.41457 17.1564 5.62089C17.3801 5.8272 17.5282 6.10258 17.5769 6.40299C17.6389 6.78799 17.6919 7.17299 17.7369 7.56099C15.3299 8.74599 12.6828 9.36226 9.99991 9.36226C7.317 9.36226 4.66993 8.74599 2.26291 7.56099C2.30691 7.17399 2.36091 6.78799 2.42291 6.40299C2.47161 6.10258 2.61967 5.8272 2.84338 5.62089C3.0671 5.41457 3.35355 5.28926 3.65691 5.26499L5.52891 5.11299ZM2.12891 9.15699C4.60076 10.2808 7.28459 10.8622 9.99991 10.8622C12.7152 10.8622 15.3991 10.2808 17.8709 9.15699C17.9665 10.9756 17.8679 12.7992 17.5769 14.597C17.5284 14.8976 17.3804 15.1732 17.1567 15.3797C16.933 15.5862 16.6464 15.7117 16.3429 15.736L14.4709 15.886C11.4949 16.126 8.50491 16.126 5.52891 15.886L3.65691 15.736C3.35341 15.7117 3.06685 15.5862 2.84311 15.3797C2.61938 15.1732 2.47141 14.8976 2.42291 14.597C2.13191 12.797 2.03291 10.973 2.12891 9.15699Z" fill="#9098B1"/>
</svg>
