<svg width="350" height="108" viewBox="0 0 350 108" fill="none" xmlns="http://www.w3.org/2000/svg">
<path d="M48.3628 0.524492C40.5463 1.01374 33.0256 3.24378 26.233 7.10085C24.8222 7.89729 21.5795 10.0704 20.2369 11.14C17.6542 13.1538 14.5139 16.1689 12.6138 18.4672C5.40031 27.1485 1.45222 37.1382 0.792308 48.3453C0.621642 51.2694 0.724042 58.6194 0.974353 60.8153C2.12351 71.1122 6.0716 80.3055 12.6935 88.0765C14.5822 90.3065 17.6656 93.2306 20.089 95.1307C21.443 96.1888 24.3102 98.1003 25.8803 98.9992C32.3088 102.674 39.6133 104.881 47.1681 105.428C48.1808 105.496 58.5118 105.541 75.3623 105.541H101.952L101.918 76.2095C101.884 49.4262 101.861 46.7638 101.69 45.4098C101.053 40.5515 100.029 36.501 98.3909 32.3254C97.5944 30.3001 95.6944 26.5113 94.4997 24.5885C86.6376 11.8681 73.6897 3.26654 59.0579 1.04787C58.0225 0.888581 56.5889 0.706536 55.8721 0.649647C53.9038 0.467603 50.2174 0.410714 48.3628 0.524492ZM67.5799 41.4162L79.0828 53.0102L79.06 66.9593L79.0259 80.9085L62.3575 80.9426C44.6764 80.9768 43.4704 80.954 41.0128 80.4534C33.4352 78.9174 27.075 73.2171 24.7198 65.8329C23.8551 63.125 23.673 61.498 23.673 56.6511V52.9192L37.5198 39.0041L51.3552 25.0777L53.7217 27.4557C55.0188 28.7528 61.2538 35.0333 67.5799 41.4162Z" fill="white"/>
<path d="M42.9697 48.9824L34.5615 57.3906L34.6298 59.1996C34.6753 60.5422 34.7549 61.2249 34.937 61.9076C35.4604 63.8304 36.4389 65.4916 37.8611 66.8683C39.3629 68.3246 40.9331 69.2121 42.9811 69.7355L43.9823 69.9858H56.0428H68.1032L68.126 63.728L68.1487 57.4702L59.7633 49.0165L51.3779 40.5628L42.9697 48.9824Z" fill="white"/>
<path d="M159.068 30.8462V51.3831H162.709H166.35V49.6196V47.856L166.896 47.8674C167.42 47.8674 167.442 47.8901 167.954 48.5728C168.614 49.4603 170.15 50.7118 171.186 51.2125C172.699 51.9406 173.712 52.1227 176.419 52.1227C178.684 52.1227 178.866 52.1113 179.935 51.8041C182.245 51.1669 184.27 49.9723 185.795 48.3566C187.786 46.2517 188.969 43.7941 189.527 40.5742C189.675 39.7778 189.72 38.7993 189.72 36.8196C189.72 34.8398 189.675 33.8613 189.527 33.0649C188.286 25.9424 183.246 21.4596 176.488 21.4596C172.608 21.4596 169.82 22.6315 167.989 24.9981C167.488 25.658 167.454 25.6807 166.999 25.6466L166.521 25.6125L166.487 17.9552L166.464 10.3094H162.766H159.068V30.8462ZM176.419 28.1156C178.263 28.5024 180.231 29.9019 181.175 31.4834C182.063 32.9966 182.472 35.1129 182.359 37.6046C182.222 40.3239 181.585 41.9737 180.072 43.4869C179.344 44.2151 178.945 44.5109 178.183 44.875C176.806 45.5463 175.998 45.7284 174.371 45.7284C171.959 45.7284 170.264 45.0685 168.671 43.4756C167.67 42.4857 167.078 41.4617 166.748 40.176C166.077 37.5136 166.316 34.0093 167.329 31.9726C168 30.6073 169.434 29.242 170.833 28.6276C172.312 27.9677 174.679 27.7515 176.419 28.1156Z" fill="white"/>
<path d="M137.36 21.5847C133.81 22.0626 130.875 23.6441 129.009 26.079C128.053 27.3191 126.949 29.6061 127.245 29.7199C128.588 30.2205 133.878 31.9044 133.924 31.8361C133.969 31.7906 134.06 31.5289 134.14 31.2445C134.379 30.4367 134.777 29.7312 135.392 29.0599C136.416 27.9335 137.622 27.4898 139.67 27.4671C141.797 27.4443 143.038 27.8539 143.982 28.8551C144.278 29.1737 144.653 29.7199 144.824 30.0839C145.097 30.6642 145.131 30.8918 145.165 32.223L145.211 33.7248L140.159 33.7817C134.743 33.8386 134.254 33.8841 132.308 34.4985C129.123 35.5111 126.983 37.5933 126.221 40.4605C125.903 41.6324 125.937 44.3289 126.278 45.5236C127.279 48.9938 130.135 51.2921 134.311 52.0089C135.471 52.2023 138.168 52.2365 139.271 52.0658C140.91 51.8041 142.491 51.0759 143.584 50.0861C144.073 49.631 145.108 48.1746 145.245 47.7423C145.302 47.5602 145.427 47.5147 145.871 47.5147H146.417L146.485 48.0039C146.656 49.1531 147.577 50.3478 148.647 50.8256C149.762 51.3149 150.342 51.3831 153.403 51.3831H156.338V48.3794V45.3757L154.882 45.3302C153.3 45.2847 153.004 45.1936 152.618 44.5906C152.424 44.3062 152.413 43.7145 152.345 37.2747C152.288 30.5391 152.276 30.2432 152.037 29.3216C150.979 25.3167 148.135 22.7567 143.629 21.8009C142.332 21.5165 138.748 21.4027 137.36 21.5847ZM145.188 40.1305C145.188 41.7689 144.653 43.066 143.493 44.2265C141.581 46.138 138.236 46.7979 135.551 45.7853C134.618 45.4439 133.776 44.5792 133.514 43.7031C133.036 42.042 133.719 40.4263 135.175 39.8006C136.143 39.3796 136.655 39.3455 140.955 39.3341L145.188 39.3227V40.1305Z" fill="white"/>
<path d="M205.774 21.5392C200.882 22.1195 197.127 24.2585 194.84 27.7856C193.669 29.5833 193.02 31.3241 192.679 33.6566C192.394 35.6135 192.508 39.6185 192.895 41.2569C194.237 46.9344 198.242 50.7119 204.204 51.9179C205.638 52.2137 209.893 52.2137 211.327 51.9179C214.296 51.3149 216.8 50.0633 218.734 48.2087C220.85 46.1721 222.136 43.7828 222.75 40.7449C223.046 39.2658 223.046 34.362 222.75 32.9511C222.09 29.8109 220.782 27.376 218.677 25.3963C215.878 22.7908 212.044 21.4255 207.595 21.4823C206.787 21.4823 205.968 21.5165 205.774 21.5392ZM209.757 28.2294C211.827 28.6617 213.762 30.1522 214.695 32.0409C215.355 33.3949 215.616 34.7147 215.616 36.8196C215.616 38.9131 215.355 40.2443 214.706 41.5755C213.307 44.4086 210.144 46.0015 206.764 45.5919C204.841 45.3529 203.59 44.784 202.281 43.5552C201.053 42.3947 200.336 40.9611 200.029 39.0724C199.813 37.7298 199.938 34.6123 200.256 33.52C200.654 32.1433 201.223 31.1762 202.202 30.1977C203.18 29.2192 204.455 28.5138 205.74 28.2294C206.696 28.0246 208.767 28.0246 209.757 28.2294Z" fill="white"/>
<path d="M193.885 75.2196V95.7565H197.583H201.28V75.2196V54.6827H197.583H193.885V75.2196Z" fill="white"/>
<path d="M285.589 75.2196V95.7565H289.23H292.871V93.9929V92.2294H293.383C293.85 92.2294 293.907 92.2635 294.225 92.7186C294.965 93.8109 296.831 95.29 298.162 95.8475C299.834 96.5416 303.396 96.8146 305.512 96.405C310.859 95.3583 314.614 91.4898 315.877 85.7099C316.116 84.6518 316.139 84.2422 316.139 81.1929C316.139 78.1551 316.116 77.7341 315.888 76.7329C315.183 73.604 313.909 71.2488 311.861 69.2918C309.938 67.46 307.503 66.3108 304.738 65.9353C303.646 65.7874 301.336 65.8557 300.21 66.0605C297.775 66.5042 295.67 67.7444 294.396 69.4852C294.02 70.0086 293.952 70.0427 293.486 70.0427H292.985V62.3627V54.6827H289.287H285.589V75.2196ZM302.793 72.4889C303.259 72.58 304.09 72.8872 304.681 73.183C306.57 74.1046 307.844 75.652 308.47 77.7796C308.777 78.8491 308.914 82.1942 308.686 83.5709C308.379 85.4824 307.617 86.9501 306.32 88.1448C304.238 90.0449 301.075 90.6593 298.094 89.7263C296.375 89.2029 294.635 87.7465 293.861 86.1992C293.099 84.6632 292.939 83.844 292.939 81.2498C292.928 78.6443 293.042 78.0185 293.793 76.4484C294.737 74.4687 296.671 72.9896 298.958 72.4889C299.891 72.2841 301.791 72.2841 302.793 72.4889Z" fill="white"/>
<path d="M137.565 66.0036C132.74 66.7659 128.849 70.0882 127.279 74.8214C126.733 76.4825 126.528 77.7455 126.448 79.9983C126.266 85.3231 127.472 89.0094 130.397 92.0359C132.263 93.9815 134.652 95.2445 137.394 95.711C138.839 95.9726 141.9 95.8702 143.253 95.5403C145.245 95.0397 147.111 93.8336 148.203 92.3431C148.601 91.797 148.635 91.7742 149.181 91.7742H149.739V95.6086C149.739 97.7248 149.682 99.659 149.625 99.898C149.568 100.148 149.363 100.501 149.17 100.694L148.829 101.047L139.954 101.081L131.079 101.104L131.102 104.324L131.136 107.532H141.49C151.036 107.532 151.901 107.521 152.572 107.328C154.745 106.725 156.27 105.177 156.873 102.924C157.066 102.23 157.077 101.036 157.077 84.4356V66.6863L153.471 66.6521L149.853 66.6294V68.3929V70.1565H149.295C148.817 70.1565 148.715 70.111 148.544 69.8493C147.93 68.9277 146.189 67.4258 145.063 66.8569C143.288 65.9581 140.147 65.6054 137.565 66.0036ZM144.562 72.6937C146.894 73.456 148.59 75.1058 149.318 77.3017C149.75 78.6215 149.932 80.5899 149.75 82.1942C149.5 84.5494 148.988 85.6985 147.577 87.1094C145.757 88.9526 143.401 89.7262 140.716 89.3849C138.031 89.055 135.767 87.5303 134.72 85.3572C134.128 84.1398 133.935 83.2637 133.844 81.5343C133.662 77.7455 134.766 75.1627 137.246 73.5584C138.691 72.6255 139.999 72.3069 142.116 72.3638C143.39 72.3979 143.811 72.4548 144.562 72.6937Z" fill="white"/>
<path d="M172.893 65.9012C172.711 65.924 172.142 66.0036 171.653 66.0719C168.376 66.5156 165.338 68.2905 163.552 70.7936C163.062 71.4763 162.084 73.4105 162.004 73.8315C161.97 74.0136 162.437 74.207 165.258 75.1741C167.067 75.7885 168.581 76.3005 168.637 76.3005C168.694 76.3005 168.785 76.0843 168.865 75.8226C169.081 75.0148 169.639 74.0249 170.23 73.3992C171.357 72.2045 172.597 71.8063 174.941 71.8973C175.851 71.9314 176.647 72.0224 177.011 72.1362C178.218 72.5231 179.242 73.4902 179.708 74.6735C179.867 75.0717 179.936 75.6292 179.981 76.7215L180.027 78.2233L174.645 78.2688C169.673 78.3144 169.172 78.3257 168.273 78.5533C165.998 79.0994 164.45 79.9072 163.096 81.2498C161.504 82.8313 160.775 84.72 160.775 87.28C160.775 90.0335 161.651 92.1384 163.495 93.8564C165.167 95.4038 167.454 96.2913 170.401 96.5529C172.62 96.7464 175.202 96.405 176.511 95.7337C177.25 95.3583 178.195 94.687 178.65 94.1977C179.105 93.7313 179.822 92.639 180.004 92.1725C180.095 91.9222 180.175 91.8881 180.664 91.8881H181.221L181.301 92.4114C181.506 93.9588 182.666 95.108 184.521 95.5858C185.021 95.711 185.875 95.7565 188.162 95.7565H191.154V92.7414V89.7263H189.823C188.765 89.7263 188.378 89.6808 188.014 89.5101C187.16 89.1232 187.172 89.237 187.172 82.069C187.172 76.9604 187.138 75.5837 187.001 74.7076C186.239 70.0427 183.212 67.13 178.058 66.1174C177.137 65.9353 173.666 65.7874 172.893 65.9012ZM180.004 84.4697C180.004 86.1195 179.435 87.4735 178.252 88.6454C176.977 89.9083 175.589 90.4772 173.507 90.6024C171.072 90.7503 169.24 89.988 168.49 88.5316C168.148 87.8831 168.08 86.586 168.342 85.9147C168.694 84.9704 169.388 84.356 170.503 84.0032C171.368 83.7302 171.357 83.7302 175.828 83.7074L180.004 83.696V84.4697Z" fill="white"/>
<path d="M216.982 65.9125C213.056 66.2197 209.597 68.0971 207.64 70.9643C207.14 71.7038 206.173 73.6608 206.173 73.9225C206.173 74.0363 207.265 74.4459 209.541 75.2082C211.384 75.8226 212.908 76.3005 212.931 76.2777C212.942 76.2663 213.022 76.016 213.102 75.7316C213.363 74.8441 213.91 73.8997 214.513 73.2853C215.559 72.2613 216.731 71.8631 218.802 71.8631C220.805 71.8631 222.033 72.2613 222.978 73.2512C223.865 74.1728 224.32 75.6405 224.241 77.4041L224.206 78.1778L218.859 78.2461C214.433 78.3029 213.375 78.3485 212.715 78.4964C208.505 79.4976 206.139 81.4887 205.24 84.7997C204.921 85.9943 204.898 88.4861 205.194 89.6693C206.195 93.6061 209.62 96.1205 214.558 96.5415C216.071 96.6781 218.097 96.5529 219.2 96.2685C220.156 96.0181 221.351 95.4265 222.193 94.7893C222.705 94.4025 223.091 93.9701 223.581 93.2192C223.956 92.6503 224.263 92.1156 224.263 92.0359C224.263 91.9108 224.411 91.888 224.866 91.9108L225.458 91.9449L225.526 92.5138C225.617 93.2761 225.959 93.9019 226.573 94.4708C227.79 95.5972 228.53 95.7565 232.387 95.7565H235.414V92.7413V89.7262L234.082 89.7149C232.524 89.7149 232.046 89.5783 231.704 89.0663C231.454 88.7022 231.454 88.6567 231.397 81.9552C231.34 74.4914 231.318 74.2866 230.533 72.2613C229.463 69.4852 227.028 67.4144 223.751 66.4587C221.965 65.9467 219.314 65.7305 216.982 65.9125ZM224.218 84.5721C224.047 86.4153 223.592 87.5303 222.545 88.5885C221.351 89.8059 219.712 90.4885 217.721 90.6023C215.15 90.7502 213.443 90.0334 212.692 88.4974C212.43 87.9627 212.374 87.701 212.374 86.9956C212.385 85.6985 212.92 84.8338 214.103 84.2194C214.979 83.7757 215.639 83.7188 220.042 83.7074L224.297 83.696L224.218 84.5721Z" fill="white"/>
<path d="M331.67 65.9922C328.905 66.4018 326.425 67.3575 324.49 68.8025C323.546 69.4966 322.078 71.0212 321.441 71.9655C320.326 73.6039 319.495 75.7998 319.143 78.064C318.915 79.4521 318.961 83.3774 319.2 84.7769C319.996 89.328 322.499 92.821 326.39 94.8121C329.144 96.223 332.341 96.8146 335.697 96.5529C339.634 96.2343 342.752 94.9486 345.186 92.639C347.314 90.6365 348.691 88.0082 349.26 84.8907C349.556 83.3092 349.556 79.1222 349.26 77.552C348.156 71.5218 344.106 67.4827 337.871 66.1742C336.38 65.867 333.217 65.776 331.67 65.9922ZM336.96 72.8189C339.475 73.6722 341.147 75.5382 341.819 78.1892C342.035 79.0653 342.069 79.4862 342.069 81.3067C342.058 83.0816 342.023 83.5595 341.819 84.3218C341.068 87.098 339.156 89.055 336.448 89.7945C335.436 90.0676 333.137 90.079 332.125 89.8059C329.246 89.0436 327.21 86.9159 326.618 84.0374C326.231 82.16 326.277 79.691 326.72 77.9502C327.232 75.9478 328.711 74.1273 330.543 73.2512C331.897 72.6027 332.773 72.432 334.571 72.4775C335.823 72.5117 336.198 72.5572 336.96 72.8189Z" fill="white"/>
<path d="M251.923 66.288C249.784 66.5838 247.883 67.6761 246.848 69.1894C246.416 69.8038 246.404 69.8151 245.858 69.8151H245.312V68.2222V66.6294H241.728H238.144V81.1929V95.7565H241.842H245.54V86.4494C245.54 77.5406 245.551 77.0969 245.767 76.255C246.063 75.1058 246.461 74.3776 247.212 73.6722C248.327 72.6141 249.92 72.1703 251.661 72.4206C253.356 72.671 254.562 73.5357 255.12 74.9238L255.381 75.5609L255.416 85.653L255.438 95.7565H259.136H262.822L262.857 86.4494C262.902 77.2903 262.902 77.1424 263.152 76.2663C263.79 73.9794 265.121 72.7392 267.305 72.4206C269.695 72.0679 271.777 73.0578 272.528 74.9238L272.789 75.5609L272.824 85.653L272.858 95.7565H276.555H280.253L280.208 84.9703C280.174 74.2297 280.174 74.1956 279.923 73.2285C279.411 71.3056 278.205 69.3486 276.851 68.2678C276.021 67.6078 274.416 66.8114 273.244 66.5042C272.482 66.288 272.027 66.2539 270.4 66.2539C268.238 66.2539 267.271 66.4359 265.94 67.0958C265.064 67.5168 263.596 68.8822 262.993 69.8151C262.561 70.4864 262.538 70.4978 262.026 70.4978C261.514 70.4978 261.491 70.4864 261.082 69.8606C259.876 68.063 258.271 66.9252 256.235 66.4701C255.222 66.2425 252.958 66.1401 251.923 66.288Z" fill="white"/>
</svg>
