<svg width="536" height="155" viewBox="0 0 536 155" fill="none" xmlns="http://www.w3.org/2000/svg">
<path d="M199.525 57.3077C202.827 57.3077 205.521 56.3887 207.61 54.5507C209.696 52.7127 210.74 50.2667 210.74 47.2137V46.2787H198.871C196.689 46.2787 194.976 46.7467 193.731 47.6817C192.483 48.6157 191.861 49.9247 191.861 51.6067C191.861 53.2887 192.516 54.6607 193.824 55.7187C195.132 56.7787 197.032 57.3077 199.525 57.3077ZM197.469 66.8407C194.166 66.8407 191.207 66.2637 188.59 65.1117C185.973 63.9587 183.901 62.2767 182.374 60.0647C180.847 57.8537 180.085 55.1577 180.085 51.9807C180.085 48.8027 180.847 46.1387 182.374 43.9897C183.901 41.8387 186.02 40.2207 188.73 39.1297C191.44 38.0397 194.54 37.4937 198.03 37.4937H210.74V34.8767C210.74 32.6957 210.054 30.9047 208.684 29.5027C207.313 28.1007 205.133 27.3997 202.142 27.3997C199.213 27.3997 197.032 28.0697 195.6 29.4087C194.166 30.7497 193.231 32.4787 192.796 34.5967L181.954 30.9507C182.702 28.5837 183.901 26.4177 185.552 24.4557C187.202 22.4927 189.415 20.9047 192.188 19.6887C194.96 18.4747 198.341 17.8657 202.329 17.8657C208.435 17.8657 213.264 19.3937 216.816 22.4457C220.367 25.4997 222.143 29.9237 222.143 35.7177V53.0087C222.143 54.8777 223.015 55.8127 224.76 55.8127H228.499V65.5327H220.648C218.342 65.5327 216.442 64.9717 214.946 63.8497C213.451 62.7287 212.703 61.2327 212.703 59.3637V59.2707H210.927C210.678 60.0177 210.117 60.9997 209.245 62.2147C208.372 63.4297 207.002 64.5037 205.133 65.4387C203.263 66.3727 200.708 66.8407 197.469 66.8407Z" fill="white"/>
<path d="M257.099 56.5597C260.712 56.5597 263.734 55.3917 266.164 53.0547C268.594 50.7187 269.81 47.3077 269.81 42.8217V41.8867C269.81 37.4007 268.61 33.9887 266.212 31.6517C263.812 29.3157 260.775 28.1467 257.099 28.1467C253.485 28.1467 250.463 29.3157 248.033 31.6517C245.603 33.9887 244.388 37.4007 244.388 41.8867V42.8217C244.388 47.3077 245.603 50.7187 248.033 53.0547C250.463 55.3917 253.485 56.5597 257.099 56.5597ZM260.65 66.8407C256.475 66.8407 253.267 66.1237 251.024 64.6907C248.78 63.2587 247.129 61.6697 246.07 59.9247H244.388V65.5327H232.798V0.108696H244.575V24.5027H246.257C246.942 23.3807 247.86 22.3217 249.014 21.3247C250.166 20.3277 251.692 19.5017 253.594 18.8477C255.494 18.1937 257.846 17.8657 260.65 17.8657C264.389 17.8657 267.847 18.7867 271.024 20.6237C274.202 22.4627 276.756 25.1557 278.688 28.7077C280.619 32.2597 281.586 36.5587 281.586 41.6057V43.1007C281.586 48.1487 280.619 52.4477 278.688 55.9987C276.756 59.5507 274.202 62.2467 271.024 64.0837C267.847 65.9207 264.389 66.8407 260.65 66.8407Z" fill="white"/>
<path d="M310.185 56.3727C313.798 56.3727 316.789 55.2047 319.157 52.8677C321.525 50.5317 322.709 47.1827 322.709 42.8217V41.8867C322.709 37.5257 321.541 34.1747 319.204 31.8387C316.868 29.5017 313.861 28.3337 310.185 28.3337C306.571 28.3337 303.58 29.5017 301.212 31.8387C298.844 34.1747 297.661 37.5257 297.661 41.8867V42.8217C297.661 47.1827 298.844 50.5317 301.212 52.8677C303.58 55.2047 306.571 56.3727 310.185 56.3727ZM310.185 66.8407C305.574 66.8407 301.43 65.9067 297.755 64.0367C294.077 62.1677 291.18 59.4567 289.062 55.9057C286.943 52.3537 285.884 48.0867 285.884 43.1007V41.6057C285.884 36.6217 286.943 32.3537 289.062 28.8017C291.18 25.2497 294.077 22.5387 297.755 20.6697C301.43 18.8007 305.574 17.8657 310.185 17.8657C314.796 17.8657 318.938 18.8007 322.615 20.6697C326.291 22.5387 329.189 25.2497 331.308 28.8017C333.425 32.3537 334.485 36.6217 334.485 41.6057V43.1007C334.485 48.0867 333.425 52.3537 331.308 55.9057C329.189 59.4567 326.291 62.1677 322.615 64.0367C318.938 65.9067 314.796 66.8407 310.185 66.8407Z" fill="white"/>
<path d="M205.32 126.033C208.933 126.033 211.955 124.881 214.386 122.575C216.816 120.27 218.031 117.03 218.031 112.855V111.92C218.031 107.683 216.83 104.428 214.433 102.153C212.033 99.8789 208.996 98.7409 205.32 98.7409C201.705 98.7409 198.684 99.8789 196.254 102.153C193.824 104.428 192.609 107.683 192.609 111.92V112.855C192.609 117.03 193.824 120.27 196.254 122.575C198.684 124.881 201.705 126.033 205.32 126.033ZM180.833 113.135V111.639C180.833 106.779 181.798 102.62 183.73 99.1629C185.661 95.7039 188.231 93.0569 191.44 91.2179C194.649 89.3809 198.154 88.4599 201.955 88.4599C206.192 88.4599 209.4 89.2079 211.582 90.7029C213.762 92.1989 215.351 93.7579 216.348 95.3769H218.031V89.7689H229.62V144.352C229.62 147.53 228.685 150.068 226.816 151.969C224.947 153.869 222.454 154.82 219.339 154.82H188.31V144.539H215.227C216.97 144.539 217.844 143.604 217.844 141.735V129.678H216.161C215.538 130.676 214.666 131.687 213.544 132.716C212.423 133.743 210.927 134.601 209.058 135.285C207.189 135.972 204.82 136.314 201.955 136.314C198.154 136.314 194.649 135.395 191.44 133.556C188.231 131.719 185.661 129.07 183.73 125.613C181.798 122.154 180.833 117.995 180.833 113.135Z" fill="white"/>
<path d="M254.856 127.902C258.158 127.902 260.852 126.984 262.94 125.145C265.027 123.308 266.071 120.861 266.071 117.808V116.873H254.202C252.02 116.873 250.307 117.341 249.061 118.276C247.814 119.21 247.192 120.519 247.192 122.201C247.192 123.883 247.846 125.255 249.155 126.313C250.463 127.374 252.363 127.902 254.856 127.902ZM252.8 137.435C249.496 137.435 246.538 136.859 243.921 135.707C241.304 134.554 239.231 132.871 237.705 130.66C236.178 128.449 235.415 125.752 235.415 122.575C235.415 119.397 236.178 116.733 237.705 114.584C239.231 112.433 241.35 110.815 244.061 109.724C246.771 108.634 249.87 108.088 253.36 108.088H266.071V105.471C266.071 103.291 265.385 101.499 264.015 100.097C262.644 98.6949 260.464 97.9939 257.473 97.9939C254.544 97.9939 252.363 98.6639 250.93 100.003C249.496 101.344 248.562 103.073 248.126 105.191L237.285 101.545C238.032 99.1779 239.231 97.0119 240.883 95.0499C242.533 93.0869 244.746 91.4989 247.519 90.2829C250.29 89.0689 253.672 88.4599 257.66 88.4599C263.766 88.4599 268.594 89.9879 272.146 93.0399C275.698 96.0939 277.474 100.518 277.474 106.312V123.603C277.474 125.472 278.345 126.407 280.09 126.407H283.83V136.127H275.978C273.672 136.127 271.772 135.566 270.277 134.445C268.781 133.323 268.034 131.828 268.034 129.958V129.865H266.258C266.009 130.612 265.448 131.594 264.576 132.809C263.702 134.024 262.333 135.098 260.464 136.033C258.594 136.968 256.039 137.435 252.8 137.435Z" fill="white"/>
<path d="M288.128 70.702H299.905V136.126H288.128V70.702Z" fill="white"/>
<path d="M325.139 127.902C328.441 127.902 331.135 126.984 333.223 125.145C335.311 123.308 336.355 120.861 336.355 117.808V116.873H324.485C322.303 116.873 320.59 117.341 319.344 118.276C318.098 119.21 317.475 120.519 317.475 122.201C317.475 123.883 318.13 125.255 319.438 126.313C320.747 127.374 322.646 127.902 325.139 127.902ZM323.083 137.435C319.78 137.435 316.821 136.859 314.204 135.707C311.587 134.554 309.515 132.871 307.988 130.66C306.461 128.449 305.699 125.752 305.699 122.575C305.699 119.397 306.461 116.733 307.988 114.584C309.515 112.433 311.634 110.815 314.344 109.724C317.055 108.634 320.154 108.088 323.644 108.088H336.355V105.471C336.355 103.291 335.668 101.499 334.299 100.097C332.927 98.6949 330.747 97.9939 327.756 97.9939C324.827 97.9939 322.646 98.6639 321.214 100.003C319.78 101.344 318.845 103.073 318.41 105.191L307.568 101.545C308.316 99.1779 309.515 97.0119 311.166 95.0499C312.816 93.0869 315.029 91.4989 317.802 90.2829C320.574 89.0689 323.955 88.4599 327.943 88.4599C334.049 88.4599 338.878 89.9879 342.429 93.0399C345.981 96.0939 347.757 100.518 347.757 106.312V123.603C347.757 125.472 348.629 126.407 350.374 126.407H354.113V136.127H346.262C343.956 136.127 342.056 135.566 340.56 134.445C339.065 133.323 338.317 131.828 338.317 129.958V129.865H336.542C336.292 130.612 335.731 131.594 334.859 132.809C333.986 134.024 332.616 135.098 330.747 136.033C328.878 136.968 326.322 137.435 323.083 137.435Z" fill="white"/>
<path d="M358.412 136.127V89.7688H370.002V94.8158H371.684C372.493 93.2598 373.833 91.9048 375.703 90.7508C377.572 89.5978 380.033 89.0218 383.087 89.0218C386.388 89.0218 389.036 89.6608 391.031 90.9378C393.024 92.2148 394.55 93.8808 395.611 95.9368H397.293C398.351 93.9448 399.847 92.2928 401.779 90.9838C403.71 89.6758 406.452 89.0218 410.004 89.0218C412.869 89.0218 415.472 89.6288 417.808 90.8438C420.145 92.0588 422.014 93.8968 423.416 96.3588C424.818 98.8208 425.518 101.919 425.518 105.658V136.127H413.742V106.499C413.742 103.945 413.088 102.029 411.78 100.751C410.471 99.4748 408.632 98.8348 406.266 98.8348C403.585 98.8348 401.513 99.6918 400.05 101.406C398.586 103.12 397.854 105.565 397.854 108.742V136.127H386.078V106.499C386.078 103.945 385.423 102.029 384.114 100.751C382.806 99.4748 380.968 98.8348 378.601 98.8348C375.921 98.8348 373.849 99.6918 372.386 101.406C370.921 103.12 370.189 105.565 370.189 108.742V136.127H358.412Z" fill="white"/>
<path d="M458.231 127.154C461.844 127.154 464.866 125.986 467.296 123.649C469.727 121.313 470.942 117.902 470.942 113.416V112.481C470.942 107.995 469.742 104.583 467.344 102.246C464.944 99.91 461.907 98.741 458.231 98.741C454.617 98.741 451.596 99.91 449.165 102.246C446.735 104.583 445.52 107.995 445.52 112.481V113.416C445.52 117.902 446.735 121.313 449.165 123.649C451.596 125.986 454.617 127.154 458.231 127.154ZM461.783 137.435C457.608 137.435 454.399 136.718 452.156 135.285C449.913 133.853 448.261 132.264 447.202 130.519H445.52V136.127H433.93V70.703H445.707V95.097H447.389C448.074 93.975 448.993 92.916 450.147 91.919C451.299 90.922 452.824 90.096 454.726 89.442C456.626 88.788 458.979 88.46 461.783 88.46C465.521 88.46 468.979 89.381 472.157 91.218C475.334 93.057 477.889 95.75 479.821 99.302C481.752 102.854 482.718 107.153 482.718 112.2V113.695C482.718 118.743 481.752 123.042 479.821 126.594C477.889 130.145 475.334 132.841 472.157 134.678C468.979 136.515 465.521 137.435 461.783 137.435Z" fill="white"/>
<path d="M511.317 126.968C514.93 126.968 517.921 125.8 520.289 123.462C522.657 121.126 523.841 117.777 523.841 113.416V112.481C523.841 108.12 522.673 104.77 520.336 102.433C518 100.097 514.993 98.9278 511.317 98.9278C507.703 98.9278 504.712 100.097 502.344 102.433C499.976 104.77 498.793 108.12 498.793 112.481V113.416C498.793 117.777 499.976 121.126 502.344 123.462C504.712 125.8 507.703 126.968 511.317 126.968ZM511.317 137.435C506.705 137.435 502.562 136.501 498.887 134.632C495.209 132.762 492.312 130.052 490.194 126.501C488.075 122.949 487.016 118.682 487.016 113.695V112.2C487.016 107.216 488.075 102.948 490.194 99.3958C492.312 95.8438 495.209 93.1328 498.887 91.2638C502.562 89.3948 506.705 88.4608 511.317 88.4608C515.928 88.4608 520.07 89.3948 523.747 91.2638C527.423 93.1328 530.321 95.8438 532.44 99.3958C534.557 102.948 535.617 107.216 535.617 112.2V113.695C535.617 118.682 534.557 122.949 532.44 126.501C530.321 130.052 527.423 132.762 523.747 134.632C520.07 136.501 515.928 137.435 511.317 137.435Z" fill="white"/>
<path d="M65.4336 30.9998C65.4336 46.0648 53.2216 58.2768 38.1566 58.2768C23.0916 58.2768 10.8796 46.0648 10.8796 30.9998C10.8796 15.9348 23.0916 3.72279 38.1566 3.72279C53.2216 3.72279 65.4336 15.9348 65.4336 30.9998Z" fill="white"/>
<path d="M70.0425 140.191H34.5365C15.4855 140.191 0.0424805 124.748 0.0424805 105.697V102.549C0.0424805 83.2195 15.7125 67.5495 35.0425 67.5495C54.3725 67.5495 70.0425 83.2195 70.0425 102.549V140.191Z" fill="white"/>
<path d="M121.012 139.936H145.096V82.1012C145.096 50.6122 119.569 25.0852 88.0797 25.0852H75.0957V94.0202C75.0957 119.379 95.6527 139.936 121.012 139.936Z" fill="white"/>
<path d="M145.096 17.8511H75.0959V3.5531H130.798C138.695 3.5531 145.096 9.9541 145.096 17.8511Z" fill="white"/>
</svg>
