<svg width="346" height="138" viewBox="0 0 346 138" fill="none" xmlns="http://www.w3.org/2000/svg">
<path d="M278.697 0.733332C274.134 1.1088 270.71 1.71182 266.124 2.952C261.846 4.10115 255.6 6.79769 251.413 9.31218C241.321 15.3538 233.163 24.0236 227.816 34.4116C223.674 42.4556 221.398 51.1255 221.012 60.296C220.739 66.7586 220.955 73.0277 221.58 77.3968C223.924 93.7353 232.936 108.572 246.441 118.334C254.451 124.125 263.701 127.869 273.52 129.291C278.071 129.951 276.444 129.928 312.489 129.928H345.541L345.576 95.5102C345.61 58.9307 345.61 58.8396 345.075 54.8916C343.436 42.6491 338.635 31.8629 330.614 22.3625C328.52 19.8821 324.857 16.3436 322.103 14.1477C313.57 7.32107 303.284 2.86098 292.407 1.24533C289.768 0.858488 285.205 0.505777 282.975 0.517155C281.974 0.528532 280.04 0.619555 278.697 0.733332ZM285.865 33.4672C288.084 35.7428 295.593 43.2976 311.317 59.1013L317.381 65.1884L317.359 82.3689L317.324 99.5493H295.252C274.237 99.5493 273.122 99.538 271.927 99.3332C266.966 98.4912 262.848 96.6594 259.048 93.5874C254.053 89.5483 250.537 83.4612 249.524 77.0782C249.24 75.326 249.115 72.8229 249.115 68.8862V65.1998L257.227 57.0533C272.439 41.7957 280.961 33.2169 282.019 32.1132C282.6 31.5102 283.157 31.0096 283.259 30.9982C283.362 30.9982 284.534 32.1132 285.865 33.4672Z" fill="white"/>
<path d="M272.951 60.3187L262.711 70.627L262.677 72.2881C262.654 73.4031 262.7 74.2906 262.825 74.9846C263.792 80.719 268.229 85.1222 273.93 85.9983C274.976 86.169 276.763 86.1804 289.506 86.1576L303.899 86.1235L303.933 78.4549L303.956 70.7749L299.552 66.3375C287.39 54.0837 283.316 49.999 283.248 49.999C283.214 49.999 278.583 54.6412 272.951 60.3187Z" fill="white"/>
<path d="M186.252 16.7987C186.218 16.8784 186.207 26.8794 186.218 39.0195L186.252 61.0924L191.623 61.1265L197.004 61.1493L197.027 39.0195C197.05 25.15 197.016 16.8328 196.947 16.7646C196.777 16.5939 186.321 16.628 186.252 16.7987Z" fill="white"/>
<path d="M87.6642 29.3029C81.1788 29.7011 76.5822 32.4546 74.2953 37.2901C73.3964 39.1788 72.9413 41.1017 72.7479 43.821C72.5658 46.2444 72.7934 49.0206 73.3282 50.9662C74.6821 55.8814 77.8679 58.9534 83.113 60.387C84.9676 60.899 86.4809 61.0583 90.281 61.1379L93.7513 61.2062L93.7854 62.1733C93.9106 65.6322 92.7273 67.5891 90.0307 68.3856C89.2115 68.6359 87.2546 68.8862 86.1282 68.8862C84.8311 68.8862 80.9058 68.6018 78.926 68.3628C78.0954 68.2604 77.3445 68.2149 77.2649 68.2377C77.1738 68.2718 77.0714 68.5449 77.0259 68.8521C76.9918 69.1479 76.7187 70.6498 76.4457 72.1858C76.1612 73.7218 75.8654 75.3602 75.7744 75.8266C75.6037 76.8051 75.6492 76.9189 76.2636 76.9986C76.4912 77.0213 77.629 77.2034 78.7895 77.3968C82.9538 78.1022 86.185 78.2615 89.2798 77.9315C95.9472 77.2261 100.908 74.2679 103.195 69.6258C104.207 67.555 104.515 66.2124 104.606 63.3111L104.674 61.2062L140.571 61.1493L176.468 61.0924L176.502 45.1977L176.525 29.2915L176.274 29.2346C176.126 29.2005 173.657 29.1891 170.779 29.2005L165.545 29.2346L165.488 40.5555L165.431 51.8764H135.053H104.674L104.617 40.5555L104.56 29.2346L96.8233 29.2233C92.568 29.2119 88.4492 29.246 87.6642 29.3029ZM93.6716 38.5303C93.774 38.6327 93.8082 40.2483 93.8082 45.118C93.8082 48.6679 93.774 51.6489 93.7399 51.7513C93.683 51.9106 93.353 51.9333 91.2026 51.9333C88.5061 51.9333 86.5946 51.7399 85.821 51.3872C85.5479 51.262 85.1497 50.9776 84.9221 50.7614C84.0346 49.8512 83.6933 48.6338 83.6023 46.0169C83.4544 41.8412 84.4101 39.5543 86.5946 38.8375C87.3001 38.6099 87.6983 38.5758 90.3948 38.5075C92.056 38.4734 93.4327 38.4279 93.4782 38.4165C93.5123 38.4051 93.592 38.4506 93.6716 38.5303Z" fill="white"/>
<path d="M165.567 67.8281C165.522 67.8622 165.488 69.7395 165.488 71.981V76.0542L170.983 76.0314L176.467 75.9973V71.9013V67.8053L171.052 67.7712C168.082 67.7598 165.602 67.7826 165.567 67.8281Z" fill="white"/>
<path d="M131.355 93.5191V111.098H116.677H102V107.195C102 105.056 101.943 102.69 101.875 101.939C101.499 97.6037 100.316 94.6455 98.0974 92.4495C96.3225 90.6974 94.4793 89.7416 91.5324 89.0248C87.4592 88.035 81.793 87.9781 76.6275 88.8655C75.0005 89.15 72.9297 89.6051 72.2243 89.8327C71.8033 89.9692 71.7578 90.0716 71.3482 92.0968C70.3356 97.1144 70.0967 99.5834 70.0853 105.011C70.0853 107.32 70.1194 109.641 70.1763 110.153L70.256 111.098H63.5431H56.8302V99.7768V88.4559L51.3461 88.4787L45.8506 88.5128L45.8165 99.7996L45.7937 111.098H39.2515H32.7093V99.7655V88.4446L23.6412 88.4901C15.6881 88.5242 14.4252 88.5583 13.4809 88.729C5.02717 90.2536 0.714991 95.6239 0.703613 104.669C0.703613 111.439 3.1157 116.024 7.99677 118.482C8.88424 118.926 10.7502 119.563 11.888 119.802C13.8449 120.211 15.1079 120.314 18.3164 120.325C20.0686 120.325 21.5818 120.371 21.6615 120.428C21.8777 120.553 21.7639 123.556 21.5136 124.353C21.0698 125.786 20.0345 126.879 18.6464 127.402C17.1445 127.96 16.8032 127.994 13.5377 127.982C10.6705 127.982 9.03215 127.869 6.0853 127.493C5.6757 127.436 5.30024 127.436 5.24335 127.482C5.19784 127.539 5.08406 127.971 4.99304 128.472C4.90201 128.961 4.7541 129.746 4.66308 130.212C4.3445 131.965 3.66184 135.742 3.65046 135.89C3.63908 136.095 4.19659 136.22 7.84886 136.812C11.9449 137.483 16.7121 137.46 20.0231 136.743C22.3328 136.254 24.8473 135.207 26.6677 134.001C28.5792 132.716 30.4451 130.542 31.4009 128.483C32.2314 126.685 32.5841 124.944 32.6979 122.134L32.7662 120.371L115.653 120.348C161.244 120.325 198.575 120.314 198.631 120.314C198.757 120.314 198.734 104.464 198.597 103.122C198.267 99.9361 197.186 97.3306 195.161 94.8844C192.487 91.6417 188.573 89.571 183.545 88.7176C182.065 88.4673 177.48 88.4332 175.785 88.6607C173.509 88.9679 169.402 89.753 169.197 89.9351C169.095 90.0147 169.083 90.2536 169.14 90.7543C169.186 91.1525 169.334 92.4382 169.47 93.6328C169.595 94.8161 169.755 96.1701 169.812 96.6252C169.88 97.0803 169.925 97.6151 169.925 97.8199C169.925 98.4115 170.039 98.4456 171.211 98.2863C173.202 98.0133 176.399 97.7857 178.254 97.7857C183.078 97.7857 185.752 98.9349 187.049 101.575C187.709 102.917 187.788 103.532 187.788 107.536V111.098H165.033H142.277V93.5191V75.9404H136.816H131.355V93.5191ZM87.0951 97.7402C88.6311 98.0133 89.6096 98.6163 90.2353 99.6744C90.9294 100.858 91.0773 102.121 91.0773 107.07V111.098H86.1393H81.2128L81.1445 110.552C80.9283 108.89 80.8145 106.126 80.8714 103.987C80.9397 101.597 81.2241 98.3091 81.4176 97.8199C81.5086 97.5809 81.5769 97.5695 82.8512 97.5354C84.7626 97.4899 85.9801 97.5468 87.0951 97.7402ZM21.7639 104.408L21.7866 111.098H18.8625C15.6995 111.086 14.6186 110.973 13.6743 110.529C12.7527 110.096 12.1497 109.164 11.8083 107.65C11.558 106.501 11.558 102.849 11.8197 101.666C12.3772 99.1624 13.5036 98.1157 15.984 97.7857C16.3253 97.7402 17.7589 97.7061 19.1697 97.7175L21.7297 97.7288L21.7639 104.408Z" fill="white"/>
<path d="M45.8509 127.175C45.8168 127.243 45.8054 129.109 45.8168 131.293L45.8509 135.276H51.3122H56.7736L56.8077 131.145L56.8305 127.027H51.3691C47.0911 127.027 45.885 127.061 45.8509 127.175Z" fill="white"/>
<path d="M176.206 131.145L176.24 135.276H181.644H187.049L187.083 131.145L187.106 127.027H181.644H176.183L176.206 131.145Z" fill="white"/>
</svg>
