<svg width="43" height="42" viewBox="0 0 43 42" fill="none" xmlns="http://www.w3.org/2000/svg">
<path d="M21.5 13.4696V22.8846M21.5 28.4412V27.5853M36.0505 27.4603V14.4505C36.0497 13.881 35.9001 13.3217 35.6167 12.8278C35.3333 12.3339 34.9258 11.9225 34.4345 11.6345L23.1159 5.12961C22.6251 4.84461 22.0676 4.69449 21.5 4.69449C20.9324 4.69449 20.3749 4.84461 19.884 5.12961L8.56544 11.6345C8.07244 11.9206 7.66351 12.3315 7.37982 12.8258C7.09613 13.3202 6.9477 13.8805 6.94948 14.4505V27.4638C6.95058 28.0329 7.10025 28.5919 7.38366 29.0855C7.66708 29.5791 8.07444 29.9901 8.56544 30.278L19.884 36.7829C20.3749 37.0679 20.9324 37.218 21.5 37.218C22.0676 37.218 22.6251 37.0679 23.1159 36.7829L34.4345 30.278C34.9278 29.9918 35.3368 29.5807 35.6205 29.086C35.9043 28.5913 36.0525 28.0306 36.0505 27.4603Z" stroke="#F14343" stroke-width="2.56773" stroke-linecap="round" stroke-linejoin="round"/>
</svg>
