<svg width="41" height="42" viewBox="0 0 41 42" fill="none" xmlns="http://www.w3.org/2000/svg">
<g clip-path="url(#clip0_1_1672)">
<path d="M13.5389 29.3425L12.5183 28.3157L17.0435 23.7446L6.8898 7.98928C6.80074 7.84642 6.76028 7.67822 6.77452 7.51011C6.78877 7.342 6.85695 7.18315 6.96875 7.05759L13.7604 0.213514C13.8957 0.0769703 14.0792 0.000169891 14.2706 0C14.4615 0.000471212 14.6443 0.0772649 14.779 0.213514L16.8182 2.26906L15.7996 3.29587L14.2706 1.75469L8.40332 7.66901L18.5763 23.4457C18.6663 23.5854 18.706 23.752 18.6888 23.9177C18.6717 24.0834 18.5986 24.2381 18.4819 24.356L13.5389 29.3425Z" fill="#1C6156"/>
<path d="M40.1548 18.9755L23.1093 1.79353C22.5679 1.24947 21.8346 0.94397 21.0701 0.94397C20.3056 0.94397 19.5723 1.24947 19.0309 1.79353L15.3626 5.49507C14.8229 6.04083 14.5198 6.78001 14.5198 7.55062C14.5198 8.32123 14.8229 9.06041 15.3626 9.60617L32.408 26.7882C32.9495 27.3322 33.6828 27.6377 34.4473 27.6377C35.2117 27.6377 35.945 27.3322 36.4865 26.7882L40.1548 23.0827C40.6933 22.5371 40.9956 21.7988 40.9956 21.0291C40.9956 20.2595 40.6933 19.5211 40.1548 18.9755ZM39.1342 22.0598L35.464 25.7594C35.1933 26.0314 34.8266 26.1842 34.4444 26.1842C34.0621 26.1842 33.6955 26.0314 33.4248 25.7594L16.3793 8.57742C16.1094 8.30454 15.9579 7.93495 15.9579 7.54965C15.9579 7.16434 16.1094 6.79475 16.3793 6.52187L20.0495 2.82033C20.3205 2.54877 20.687 2.39635 21.0691 2.39635C21.4512 2.39635 21.8178 2.54877 22.0887 2.82033L39.1342 20.0043C39.404 20.2771 39.5556 20.6467 39.5556 21.032C39.5556 21.4173 39.404 21.7869 39.1342 22.0598Z" fill="#1C6156"/>
<path d="M39.134 22.0598L35.4639 25.7594C35.1931 26.0314 34.8265 26.1842 34.4442 26.1842C34.062 26.1842 33.6954 26.0314 33.4246 25.7594L16.3792 8.5774C16.1093 8.30453 15.9578 7.93494 15.9578 7.54963C15.9578 7.16433 16.1093 6.79473 16.3792 6.52185L20.0494 2.82031C20.3203 2.54876 20.6869 2.39633 21.069 2.39633C21.4511 2.39633 21.8176 2.54876 22.0886 2.82031L39.134 20.0043C39.4039 20.2771 39.5555 20.6467 39.5555 21.032C39.5555 21.4173 39.4039 21.7869 39.134 22.0598Z" fill="#C2E9A8"/>
<path d="M4.45016 42.0019C4.35535 42.0019 4.26146 41.9831 4.17389 41.9465C4.08632 41.9098 4.00682 41.8561 3.93989 41.7884L0.209993 38.0286C0.0753541 37.8922 -0.000244141 37.7076 -0.000244141 37.5152C-0.000244141 37.3228 0.0753541 37.1382 0.209993 37.0018L10.6737 26.4543C10.8116 26.3235 10.9938 26.2507 11.1831 26.2507C11.3723 26.2507 11.5545 26.3235 11.6924 26.4543L15.4223 30.2141C15.5575 30.3505 15.6335 30.5355 15.6335 30.7284C15.6335 30.9213 15.5575 31.1063 15.4223 31.2428L4.9643 41.7884C4.89679 41.8564 4.81661 41.9103 4.72837 41.9469C4.64014 41.9835 4.54559 42.0022 4.45016 42.0019ZM1.73891 37.5143L4.45016 40.2472L13.8856 30.7362L11.1744 28.0052L1.73891 37.5143Z" fill="#1C6156"/>
</g>
<defs>
<clipPath id="clip0_1_1672">
<rect width="41" height="42" fill="white"/>
</clipPath>
</defs>
</svg>
