<svg width="16" height="18" viewBox="0 0 16 18" fill="none" xmlns="http://www.w3.org/2000/svg">
<path d="M10.96 8.77243C11.7471 8.14322 12.3225 7.27859 12.606 6.29912C12.8894 5.31964 12.8669 4.27415 12.5414 3.30842C12.2158 2.3427 11.6037 1.50489 10.7902 0.911825C9.97665 0.318758 9.00238 0 8.0032 0C7.00402 0 6.02975 0.318758 5.21625 0.911825C4.40274 1.50489 3.79055 2.3427 3.46505 3.30842C3.13954 4.27415 3.11695 5.31964 3.40043 6.29912C3.6839 7.27859 4.2593 8.14322 5.0464 8.77243C3.55934 9.37731 2.28373 10.4239 1.38421 11.7772C0.484694 13.1304 0.00254799 14.7282 0 16.3643V17.1822C0 17.3991 0.0842854 17.6071 0.234315 17.7605C0.384344 17.9138 0.587827 18 0.8 18H15.2C15.4122 18 15.6157 17.9138 15.7657 17.7605C15.9157 17.6071 16 17.3991 16 17.1822V16.3643C15.998 14.729 15.5168 13.1317 14.6184 11.7786C13.7201 10.4254 12.4459 9.37834 10.96 8.77243ZM4.8 4.91473C4.8 4.26772 4.98768 3.63525 5.3393 3.09728C5.69092 2.55931 6.19069 2.14002 6.77541 1.89242C7.36014 1.64483 8.00355 1.58004 8.62429 1.70627C9.24503 1.83249 9.81521 2.14405 10.2627 2.60156C10.7103 3.05906 11.015 3.64195 11.1385 4.27653C11.262 4.9111 11.1986 5.56885 10.9564 6.16661C10.7142 6.76436 10.3041 7.27527 9.77782 7.63473C9.25159 7.99419 8.6329 8.18605 8 8.18605C7.15131 8.18605 6.33737 7.84139 5.73726 7.2279C5.13714 6.61441 4.8 5.78233 4.8 4.91473ZM1.6 16.3643C1.6 14.6291 2.27428 12.965 3.47452 11.738C4.67475 10.511 6.30261 9.8217 8 9.8217C9.69739 9.8217 11.3253 10.511 12.5255 11.738C13.7257 12.965 14.4 14.6291 14.4 16.3643H1.6Z" fill="#9098B1"/>
</svg>
