<svg width="37" height="37" viewBox="0 0 37 37" fill="none" xmlns="http://www.w3.org/2000/svg">
<path d="M18.5 0.955383C8.58019 0.955383 0.5 9.03558 0.5 18.9554C0.5 28.8752 8.58019 36.9554 18.5 36.9554C28.4198 36.9554 36.5 28.8752 36.5 18.9554C36.5 9.03558 28.4198 0.955383 18.5 0.955383ZM18.5 4.55538C26.4742 4.55538 32.9 10.9812 32.9 18.9554C32.9 26.9296 26.4742 33.3554 18.5 33.3554C10.5258 33.3554 4.1 26.9296 4.1 18.9554C4.1 10.9812 10.5258 4.55538 18.5 4.55538ZM26.2273 12.2827L14.9 23.6101L10.7727 19.4827L8.22734 22.028L14.9 28.7007L28.7727 14.828L26.2273 12.2827Z" fill="#34A059"/>
</svg>
